<svg width="15" height="12" viewBox="0 0 15 12" fill="none" xmlns="http://www.w3.org/2000/svg">
<path d="M15 1.42042C14.4479 1.66179 13.8549 1.82422 13.2324 1.89749C13.8681 1.52265 14.3556 0.92915 14.5852 0.221497C13.991 0.568508 13.3322 0.820673 12.6307 0.956978C12.0693 0.368025 11.2698 0 10.3848 0C8.68524 0 7.3076 1.35681 7.3076 3.02939C7.3076 3.26679 7.3353 3.49851 7.38722 3.71944C4.82981 3.59335 2.56259 2.38705 1.04419 0.553741C0.77997 1.00128 0.628245 1.52151 0.628245 2.07752C0.628245 3.12821 1.17111 4.05566 1.99665 4.59861C1.49244 4.58271 1.01765 4.4464 0.602861 4.21979C0.602861 4.23286 0.602861 4.24478 0.602861 4.25784C0.602861 5.72597 1.66321 6.95045 3.07142 7.22817C2.81355 7.29746 2.54125 7.33437 2.2603 7.33437C2.06242 7.33437 1.86916 7.31506 1.68167 7.28042C2.07338 8.48388 3.20988 9.36021 4.55636 9.38464C3.50352 10.1974 2.17665 10.6818 0.734395 10.6818C0.486328 10.6818 0.241145 10.6676 0 10.6392C1.36206 11.4985 2.97912 12 4.71732 12C10.3779 12 13.4724 7.38378 13.4724 3.38038C13.4724 3.24918 13.4695 3.11856 13.4637 2.9885C14.0654 2.56084 14.5875 2.02754 15 1.42042Z" fill="white"/>
</svg>
