<svg width="15" height="12" viewBox="0 0 15 12" fill="none" xmlns="http://www.w3.org/2000/svg">
<path d="M12.9409 1.34466C11.7955 0.354636 10.1591 0.0812707 9.45 0H9.42273C9.31364 0 9.21136 0.0664944 9.17727 0.177318C9.11591 0.347248 9.21136 0.531954 9.36818 0.561507C10.1659 0.738825 11.0864 1.04913 11.925 1.61803C12.0955 1.72885 12.1364 1.98005 12 2.14998C11.8909 2.28297 11.7068 2.29774 11.5636 2.20909C9.92727 1.11563 7.89545 1.05652 7.5 1.05652C7.10455 1.05652 5.07273 1.11563 3.43636 2.20909C3.29318 2.29774 3.10909 2.28297 3 2.14998C2.86364 1.98005 2.90455 1.72885 3.075 1.61803C3.91364 1.04913 4.83409 0.738825 5.63182 0.561507C5.78864 0.531954 5.88409 0.347248 5.82273 0.177318C5.78864 0.0664944 5.68636 0 5.57727 0H5.55C4.84091 0.0812707 3.20455 0.354636 2.05909 1.34466C1.39091 2.01699 0.0613636 5.88104 0 9.3018C0 9.53084 0.0545454 9.75987 0.177273 9.94458C0.975 11.1636 2.70682 11.8951 4.01591 11.9985C4.21364 12.0133 4.40455 11.9172 4.52045 11.7399C4.52727 11.7399 4.52727 11.7325 4.53409 11.7251C4.77273 11.3705 4.62955 10.8681 4.24773 10.713C3.15682 10.2771 2.59773 9.75988 2.56364 9.72293C2.42727 9.58995 2.41364 9.3683 2.52955 9.22053C2.65227 9.07277 2.85682 9.05799 2.99318 9.19098C3.01364 9.20576 4.52727 10.6021 7.5 10.6021C10.4727 10.6021 11.9864 9.20576 12.0068 9.19098C12.1432 9.05799 12.3477 9.07277 12.4705 9.22053C12.5864 9.3683 12.5727 9.58995 12.4364 9.72293C12.4023 9.75988 11.8432 10.2771 10.7523 10.713C10.3705 10.8681 10.2273 11.3705 10.4659 11.7251C10.4727 11.7325 10.4727 11.7399 10.4795 11.7399C10.5955 11.9172 10.7864 12.0133 10.9841 11.9985C12.2932 11.8951 14.025 11.1636 14.8227 9.94458C14.9455 9.75987 15 9.53084 15 9.3018C14.9386 5.88104 13.6091 2.01699 12.9409 1.34466ZM5.37955 8.12707C4.75227 8.12707 4.24091 7.49168 4.24091 6.71592C4.24091 5.93276 4.75227 5.29737 5.37955 5.29737C6.01364 5.29737 6.51818 5.93276 6.51818 6.71592C6.51818 7.49168 6.01364 8.12707 5.37955 8.12707ZM9.62045 8.12707C8.98636 8.12707 8.48182 7.49168 8.48182 6.71592C8.48182 5.93276 8.98636 5.29737 9.62045 5.29737C10.2477 5.29737 10.7591 5.93276 10.7591 6.71592C10.7591 7.49168 10.2477 8.12707 9.62045 8.12707Z" fill="white"/>
</svg>
