<svg width="31" height="24" viewBox="0 0 31 24" fill="none" xmlns="http://www.w3.org/2000/svg">
<path d="M26.7445 2.68932C24.3773 0.709272 20.9955 0.162541 19.53 0H19.4736C19.2482 0 19.0368 0.132989 18.9664 0.354636C18.8395 0.694496 19.0368 1.06391 19.3609 1.12301C21.0095 1.47765 22.9118 2.09826 24.645 3.23605C24.9973 3.4577 25.0818 3.9601 24.8 4.29996C24.5745 4.56594 24.1941 4.59549 23.8982 4.41817C20.5164 2.23125 16.3173 2.11304 15.5 2.11304C14.6827 2.11304 10.4836 2.23125 7.10182 4.41817C6.80591 4.59549 6.42545 4.56594 6.2 4.29996C5.91818 3.9601 6.00273 3.4577 6.355 3.23605C8.08818 2.09826 9.99045 1.47765 11.6391 1.12301C11.9632 1.06391 12.1605 0.694496 12.0336 0.354636C11.9632 0.132989 11.7518 0 11.5264 0H11.47C10.0045 0.162541 6.62273 0.709272 4.25545 2.68932C2.87455 4.03398 0.126818 11.7621 0 18.6036C0 19.0617 0.112727 19.5197 0.366364 19.8892C2.015 22.3273 5.59409 23.7902 8.29955 23.997C8.70818 24.0266 9.10273 23.8345 9.34227 23.4799C9.35636 23.4799 9.35636 23.4651 9.37045 23.4503C9.86364 22.741 9.56773 21.7362 8.77864 21.4259C6.52409 20.5541 5.36864 19.5198 5.29818 19.4459C5.01636 19.1799 4.98818 18.7366 5.22773 18.4411C5.48136 18.1455 5.90409 18.116 6.18591 18.382C6.22818 18.4115 9.35636 21.2043 15.5 21.2043C21.6436 21.2043 24.7718 18.4115 24.8141 18.382C25.0959 18.116 25.5186 18.1455 25.7723 18.4411C26.0118 18.7366 25.9836 19.1799 25.7018 19.4459C25.6314 19.5198 24.4759 20.5541 22.2214 21.4259C21.4323 21.7362 21.1364 22.741 21.6295 23.4503C21.6436 23.4651 21.6436 23.4799 21.6577 23.4799C21.8973 23.8345 22.2918 24.0266 22.7005 23.997C25.4059 23.7902 28.985 22.3273 30.6336 19.8892C30.8873 19.5197 31 19.0617 31 18.6036C30.8732 11.7621 28.1255 4.03398 26.7445 2.68932ZM11.1177 16.2541C9.82136 16.2541 8.76454 14.9834 8.76454 13.4318C8.76454 11.8655 9.82136 10.5947 11.1177 10.5947C12.4282 10.5947 13.4709 11.8655 13.4709 13.4318C13.4709 14.9834 12.4282 16.2541 11.1177 16.2541ZM19.8823 16.2541C18.5718 16.2541 17.5291 14.9834 17.5291 13.4318C17.5291 11.8655 18.5718 10.5947 19.8823 10.5947C21.1786 10.5947 22.2355 11.8655 22.2355 13.4318C22.2355 14.9834 21.1786 16.2541 19.8823 16.2541Z" fill="#475E67"/>
</svg>
