<svg width="24" height="24" viewBox="0 0 24 24" fill="none" xmlns="http://www.w3.org/2000/svg">
<path fill-rule="evenodd" clip-rule="evenodd" d="M17 2C19.7614 2 22 4.23858 22 7L22 17C22 19.7614 19.7614 22 17 22L7 22C4.23858 22 2 19.7614 2 17L2 7C2 4.23858 4.23858 2 7 2L17 2ZM20 7C20 5.34315 18.6569 4 17 4L7 4C5.34315 4 4 5.34315 4 7L4 17C4 18.6569 5.34315 20 7 20L17 20C18.6569 20 20 18.6569 20 17L20 7Z" fill="#F4A051"/>
<path fill-rule="evenodd" clip-rule="evenodd" d="M15 10C15 10.5523 14.5523 11 14 11L10 11C9.44772 11 9 10.5523 9 10C9 9.44772 9.44772 9 10 9L14 9C14.5523 9 15 9.44772 15 10ZM15 14C15 14.5523 14.5523 15 14 15L10 15C9.44772 15 9 14.5523 9 14C9 13.4477 9.44772 13 10 13L14 13C14.5523 13 15 13.4477 15 14Z" fill="#F4A051"/>
</svg>
