<svg width="230" height="43" viewBox="0 0 230 43" fill="none" xmlns="http://www.w3.org/2000/svg">
<path d="M56.2456 8.00356C58.8718 8.00356 61.1757 8.51686 63.1573 9.54345C65.1627 10.5701 66.7026 12.0383 67.7769 13.9483C68.8752 15.8343 69.4243 18.0308 69.4243 20.5376C69.4243 23.0444 68.8752 25.2408 67.7769 27.1269C66.7026 28.9891 65.1627 30.4335 63.1573 31.4601C61.1757 32.4867 58.8718 33 56.2456 33H47.5076V8.00356H56.2456ZM56.0666 28.7384C58.6927 28.7384 60.7221 28.0222 62.1545 26.5897C63.587 25.1573 64.3032 23.1399 64.3032 20.5376C64.3032 17.9353 63.587 15.906 62.1545 14.4496C60.7221 12.9694 58.6927 12.2293 56.0666 12.2293H52.5212V28.7384H56.0666ZM81.9868 33.3223C80.0769 33.3223 78.3579 32.9045 76.83 32.0689C75.302 31.2094 74.0964 30.0038 73.213 28.4519C72.3535 26.9001 71.9238 25.1095 71.9238 23.0802C71.9238 21.0509 72.3655 19.2603 73.2488 17.7085C74.1561 16.1566 75.3856 14.9629 76.9374 14.1273C78.4892 13.2679 80.2201 12.8381 82.1301 12.8381C84.04 12.8381 85.7709 13.2679 87.3228 14.1273C88.8746 14.9629 90.0922 16.1566 90.9755 17.7085C91.8828 19.2603 92.3364 21.0509 92.3364 23.0802C92.3364 25.1095 91.8708 26.9001 90.9397 28.4519C90.0325 30.0038 88.791 31.2094 87.2153 32.0689C85.6635 32.9045 83.9207 33.3223 81.9868 33.3223ZM81.9868 28.9533C82.8941 28.9533 83.7416 28.7384 84.5295 28.3087C85.3412 27.8551 85.9858 27.1866 86.4633 26.3032C86.9408 25.4199 87.1795 24.3455 87.1795 23.0802C87.1795 21.1941 86.6781 19.7497 85.6754 18.747C84.6966 17.7204 83.4909 17.2071 82.0585 17.2071C80.626 17.2071 79.4203 17.7204 78.4415 18.747C77.4865 19.7497 77.009 21.1941 77.009 23.0802C77.009 24.9663 77.4746 26.4226 78.4057 27.4492C79.3607 28.4519 80.5544 28.9533 81.9868 28.9533ZM101.028 6.49948V33H96.014V6.49948H101.028ZM110.995 16.0253C111.639 15.1181 112.523 14.3661 113.645 13.7692C114.791 13.1485 116.092 12.8381 117.548 12.8381C119.243 12.8381 120.771 13.2559 122.132 14.0915C123.517 14.9271 124.603 16.1208 125.391 17.6727C126.203 19.2006 126.609 20.9793 126.609 23.0086C126.609 25.0379 126.203 26.8404 125.391 28.4161C124.603 29.968 123.517 31.1736 122.132 32.0331C120.771 32.8926 119.243 33.3223 117.548 33.3223C116.092 33.3223 114.803 33.0239 113.681 32.427C112.582 31.8302 111.687 31.0781 110.995 30.1709V42.4542H105.981V13.1604H110.995V16.0253ZM121.488 23.0086C121.488 21.8149 121.237 20.7883 120.735 19.9288C120.258 19.0454 119.613 18.377 118.802 17.9233C118.014 17.4697 117.154 17.2429 116.223 17.2429C115.316 17.2429 114.457 17.4817 113.645 17.9592C112.857 18.4128 112.212 19.0813 111.711 19.9646C111.233 20.848 110.995 21.8865 110.995 23.0802C110.995 24.2739 111.233 25.3125 111.711 26.1958C112.212 27.0792 112.857 27.7596 113.645 28.2371C114.457 28.6907 115.316 28.9175 116.223 28.9175C117.154 28.9175 118.014 28.6787 118.802 28.2013C119.613 27.7238 120.258 27.0434 120.735 26.16C121.237 25.2766 121.488 24.2262 121.488 23.0086ZM141.425 12.8739C142.929 12.8739 144.266 13.2082 145.436 13.8766C146.606 14.5213 147.513 15.4882 148.158 16.7774C148.826 18.0427 149.16 19.5707 149.16 21.3613V33H144.147V22.0417C144.147 20.466 143.753 19.2603 142.965 18.4247C142.177 17.5652 141.103 17.1355 139.742 17.1355C138.357 17.1355 137.259 17.5652 136.447 18.4247C135.659 19.2603 135.265 20.466 135.265 22.0417V33H130.252V6.49948H135.265V15.6314C135.91 14.7719 136.77 14.1035 137.844 13.626C138.918 13.1246 140.112 12.8739 141.425 12.8739ZM156.471 10.7969C155.587 10.7969 154.847 10.5223 154.25 9.97319C153.677 9.40021 153.391 8.69591 153.391 7.86031C153.391 7.02471 153.677 6.33235 154.25 5.78324C154.847 5.21026 155.587 4.92377 156.471 4.92377C157.354 4.92377 158.082 5.21026 158.655 5.78324C159.252 6.33235 159.55 7.02471 159.55 7.86031C159.55 8.69591 159.252 9.40021 158.655 9.97319C158.082 10.5223 157.354 10.7969 156.471 10.7969ZM158.942 13.1604V33H153.928V13.1604H158.942ZM174.889 12.8739C177.253 12.8739 179.163 13.626 180.619 15.1301C182.075 16.6103 182.804 18.6873 182.804 21.3613V33H177.79V22.0417C177.79 20.466 177.396 19.2603 176.608 18.4247C175.82 17.5652 174.746 17.1355 173.385 17.1355C172 17.1355 170.902 17.5652 170.09 18.4247C169.303 19.2603 168.909 20.466 168.909 22.0417V33H163.895V13.1604H168.909V15.6314C169.577 14.7719 170.425 14.1035 171.451 13.626C172.502 13.1246 173.648 12.8739 174.889 12.8739ZM195.163 33.3223C193.54 33.3223 192.083 33.0358 190.794 32.4628C189.505 31.866 188.478 31.0662 187.714 30.0635C186.974 29.0607 186.569 27.9506 186.497 26.733H191.546C191.642 27.497 192.012 28.1296 192.656 28.631C193.325 29.1324 194.149 29.383 195.127 29.383C196.082 29.383 196.823 29.192 197.348 28.8101C197.897 28.4281 198.171 27.9386 198.171 27.3418C198.171 26.6972 197.837 26.2197 197.169 25.9093C196.524 25.5751 195.486 25.217 194.053 24.835C192.573 24.4769 191.355 24.1068 190.4 23.7248C189.469 23.3428 188.658 22.7579 187.965 21.9701C187.297 21.1822 186.962 20.1198 186.962 18.7828C186.962 17.6846 187.273 16.6819 187.894 15.7747C188.538 14.8674 189.445 14.1512 190.615 13.626C191.809 13.1007 193.206 12.8381 194.805 12.8381C197.169 12.8381 199.055 13.435 200.463 14.6287C201.872 15.7985 202.648 17.3862 202.791 19.3916H197.992C197.921 18.6038 197.587 17.983 196.99 17.5294C196.417 17.0519 195.641 16.8132 194.662 16.8132C193.755 16.8132 193.05 16.9803 192.549 17.3146C192.072 17.6488 191.833 18.1143 191.833 18.7112C191.833 19.3797 192.167 19.893 192.836 20.2511C193.504 20.5853 194.543 20.9315 195.951 21.2896C197.384 21.6477 198.565 22.0178 199.496 22.3998C200.428 22.7818 201.227 23.3786 201.896 24.1904C202.588 24.9782 202.946 26.0287 202.97 27.3418C202.97 28.4877 202.648 29.5143 202.003 30.4216C201.383 31.3288 200.475 32.045 199.282 32.5703C198.112 33.0716 196.739 33.3223 195.163 33.3223Z" fill="#293F48"/>
<path d="M30.2893 3.4253C31.7066 3.48788 33.193 3.92592 34.5632 5.02729C35.2357 5.56546 28.344 9.01038 28.9568 9.70812C34.7738 16.3414 34.5601 22.1736 34.7392 28.3814C34.7486 28.713 34.912 28.9508 35.1666 29.1323C35.5531 29.4076 40.2199 31.3789 40.2199 36.2912C40.2199 36.7355 39.9528 37.0922 39.7674 37.0922C39.2897 37.0922 38.0484 35.3964 37.1779 35.0647C36.1597 34.6798 35.9051 34.9521 35.0158 34.8895C34.1013 34.8238 33.7021 34.3982 33.4067 34.1385C33.2119 34.3325 32.398 34.8238 32.0743 34.8144C30.9964 34.7831 30.1824 34.6642 29.7865 34.6392C28.806 34.5735 28.322 35.3369 28.1272 35.4652C27.6181 35.8031 27.5175 35.7969 27.4484 35.3651C27.0367 32.7837 28.9914 30.6717 30.7921 29.4827C31.1252 29.2637 31.0498 28.9195 30.5407 27.9308C26.6659 20.3808 20.2267 17.1768 19.1519 16.8921C19.8024 17.4521 22.5648 20.7344 22.2191 20.8971C16.4052 21.8389 13.6932 17.6743 13.3443 17.3176C12.7975 16.7513 12.1502 16.4822 11.3834 16.3414C10.1515 16.1161 7.16912 15.9909 3.43885 16.016C2.69405 16.0035 0.767635 15.919 0.17054 15.3902C-0.253712 15.0398 0.189396 14.6267 0.673359 14.3389C0.283676 13.8821 -0.0934372 13.6349 0.396809 12.9872C0.619934 12.6931 1.32074 12.0861 2.18181 11.4353C1.74813 10.8877 3.29429 4.62992 12.0873 4.07611C19.1707 3.62868 21.6251 5.20251 22.6465 5.32767C22.9607 5.36522 23.3127 5.27135 23.627 5.17748C24.3498 4.95533 27.1718 3.28763 30.2893 3.4253ZM8.11505 11.4353C7.67194 11.4353 7.31054 11.7951 7.31054 12.2363C7.31054 12.6774 7.67194 13.0373 8.11505 13.0373C8.55816 13.0373 8.91956 12.6774 8.91956 12.2363C8.91956 11.7951 8.55816 11.4353 8.11505 11.4353ZM6.83287 16.842C8.9227 16.8827 10.472 16.9765 11.2325 17.1173C11.4996 17.1674 11.7259 17.23 11.9365 17.3176C12.4267 18.2187 12.8478 19.1011 12.741 19.1449C9.92205 19.4296 7.8825 18.1718 6.83287 16.842Z" fill="#293F48"/>
<path d="M205.322 13.4855C204.678 13.4855 204.355 13.1632 204.355 12.5186V6.03668C204.355 5.39207 204.678 5.06977 205.322 5.06977H207.65C209.083 5.06977 210.193 5.43584 210.981 6.16799C211.768 6.89217 212.162 7.92673 212.162 9.27165C212.162 10.6166 211.768 11.6551 210.981 12.3873C210.193 13.1194 209.083 13.4855 207.65 13.4855H205.322ZM206.206 11.9695H207.543C209.333 11.9695 210.229 11.0702 210.229 9.27165C210.229 7.48108 209.333 6.58579 207.543 6.58579H206.206V11.9695ZM213.163 13.5929C212.829 13.5929 212.59 13.4815 212.447 13.2587C212.303 13.0358 212.307 12.7613 212.459 12.435L215.514 5.73825C215.642 5.46767 215.793 5.2727 215.968 5.15333C216.143 5.026 216.346 4.96233 216.577 4.96233C216.808 4.96233 217.011 5.026 217.186 5.15333C217.361 5.2727 217.508 5.46767 217.627 5.73825L220.707 12.435C220.858 12.7692 220.862 13.0478 220.719 13.2706C220.584 13.4855 220.361 13.5929 220.051 13.5929C219.78 13.5929 219.569 13.5292 219.418 13.4019C219.275 13.2746 219.147 13.0756 219.036 12.8051L218.535 11.6591H214.607L214.118 12.8051C213.998 13.0836 213.871 13.2865 213.736 13.4139C213.601 13.5332 213.41 13.5929 213.163 13.5929ZM216.553 7.0394L215.228 10.2147H217.926L216.577 7.0394H216.553ZM225.14 13.6168C224.312 13.6168 223.584 13.4377 222.955 13.0796C222.334 12.7135 221.849 12.2082 221.499 11.5636C221.157 10.911 220.986 10.147 220.986 9.27165C220.986 8.39626 221.157 7.63626 221.499 6.99165C221.849 6.33909 222.334 5.83375 222.955 5.47563C223.576 5.11752 224.304 4.93846 225.14 4.93846C225.975 4.93846 226.703 5.11752 227.324 5.47563C227.953 5.83375 228.438 6.33909 228.781 6.99165C229.131 7.63626 229.306 8.39228 229.306 9.25971C229.306 10.1351 229.131 10.8991 228.781 11.5517C228.438 12.2042 227.953 12.7135 227.324 13.0796C226.703 13.4377 225.975 13.6168 225.14 13.6168ZM225.14 12.0411C225.84 12.0411 226.385 11.7984 226.775 11.3129C227.173 10.8195 227.372 10.1391 227.372 9.27165C227.372 8.39626 227.177 7.71982 226.787 7.24233C226.397 6.75689 225.848 6.51416 225.14 6.51416C224.447 6.51416 223.902 6.75689 223.504 7.24233C223.114 7.71982 222.919 8.39626 222.919 9.27165C222.919 10.1391 223.114 10.8195 223.504 11.3129C223.902 11.7984 224.447 12.0411 225.14 12.0411Z" fill="#293F48"/>
</svg>
